nColumns=28
nRows=10
DataType=double
version=3
OpenSimVersion=4.1
endheader
time	1_ground_force_vx	1_ground_force_vy	1_ground_force_vz	1_ground_force_px	1_ground_force_py	1_ground_force_pz	1_ground_torque_x	1_ground_torque_y	1_ground_torque_z	2_ground_force_vx	2_ground_force_vy	2_ground_force_vz	2_ground_force_px	2_ground_force_py	2_ground_force_pz	2_ground_torque_x	2_ground_torque_y	2_ground_torque_z	3_ground_force_vx	3_ground_force_vy	3_ground_force_vz	3_ground_force_px	3_ground_force_py	3_ground_force_pz	3_ground_torque_x	3_ground_torque_y	3_ground_torque_z
0.5458333333333334	55.32733077006021	839.9989383205192	54.4784509420393	0.4602831933746001	-0.00599999999999137	0.08595840438390484	-0.03644918489567415	-0.5435394882343013	-0.03558352133567559	1.792103543096212e-12	-4.521551783375638e-12	1.439718855137256e-12	-0.2999999998677874	-0.005999999999991362	0.2000000001972966	-3.474569950984354e-14	1.506943595219829e-13	-8.426952377366531e-14	-7.04850289206858	6.326316564806522	-0.007446362108628842	0.8255253528967216	-0.005999999999991361	0.2182471715470413	0.2978862227274579	-0.40406550747043	-0.2021501543612215
0.5466666666666667	55.78021245372678	839.9475931401025	54.48832883781601	0.460642730040237	-0.005999999999991437	0.08592540427507377	-0.03601422446059674	-0.5312773096594972	-0.03479359273331995	1.652988422338103e-12	-3.446040583771716e-12	1.331285957531415e-12	-0.2999999998677684	-0.00599999999999143	0.2000000001973023	-3.938333475356289e-14	1.104630838443202e-13	-7.132850527840807e-14	-7.078419298078809	7.983873754485228	0.4402908579410795	0.8186019294401645	-0.005999999999991429	0.2196042755828694	0.3077357079909619	-0.4343959417007029	-0.2145843895820541
0.5475	56.24383000520751	839.8668532021196	54.49676200519199	0.4609959003146136	-0.005999999999991497	0.08589547486051445	-0.03560401227964329	-0.519708952072034	-0.03404399116202553	1.491185653427569e-12	-2.411966494252242e-12	1.204173288010965e-12	-0.2999999998677509	-0.00599999999999149	0.2000000001973068	-4.25820966320071e-14	7.221028026766267e-14	-5.819225478462858e-14	-6.97113316317397	9.835396087530686	0.9664746370911231	0.8118824121142529	-0.00599999999999149	0.2208790030559995	0.3142916150009804	-0.4629054225180609	-0.2257572874814898
0.5483333333333333	56.7186892092726	839.7588836999865	54.50323530518315	0.461342229658416	-0.005999999999991547	0.08586867486926826	-0.03521768409004013	-0.5088398201535077	-0.03333473261537467	1.313017275976087e-12	-1.438672622908322e-12	1.063444190434091e-12	-0.2999999998677353	-0.00599999999999154	0.20000000019731	-4.443021509355146e-14	3.660115528244273e-14	-4.51880151047077e-14	-6.714938323238322	11.88520460855709	1.572936871388818	0.8054454031694656	-0.005999999999991539	0.2220570653303038	0.3173075525660429	-0.489286105352303	-0.2355234959176573
0.5491666666666667	57.20524818352947	839.6257424607666	54.50725001207277	0.4616813401201905	-0.005999999999991584	0.08584501212810922	-0.03485303121611585	-0.4986481955383605	-0.03266415183083551	1.124471361868588e-12	-5.419048680532969e-13	9.13906361659594e-13	-0.2999999998677223	-0.005999999999991577	0.2000000001973117	-4.503733184738002e-14	4.164349714349149e-15	-3.260299446989314e-14	-6.3001809451499	14.13614777326223	2.260429584619665	0.7993640221071806	-0.005999999999991576	0.2231266187709863	0.3166043608861863	-0.513290572670222	-0.2437715438129799
0.55	57.70391025402804	839.4693294925326	54.5083250478048	0.4620129558987757	-0.005999999999991608	0.08582444347317784	-0.03450672654681046	-0.48908861393839	-0.03202912403462815	9.311006246702943e-13	2.661475324809249e-13	7.600290363678525e-13	-0.2999999998677122	-0.005999999999991601	0.2000000001973121	-4.452953428925557e-14	-2.470491551416495e-14	-2.068221654943153e-14	-5.719591192467624	16.58952342516234	3.028549875497736	0.7937041791632505	-0.0059999999999916	0.2240786116993455	0.3120761137335379	-0.5347411543709047	-0.2504275469717703
0.5508333333333334	58.21501778533334	839.2913378320943	54.50599862494159	0.4623369065641488	-0.005999999999991613	0.08580687637088782	-0.03417461075765615	-0.4800962866735935	-0.03142535086138647	7.379425972901929e-13	9.767334026383182e-13	6.058773905892747e-13	-0.2999999998677053	-0.005999999999991606	0.200000000197311	-4.304456835526055e-14	-4.973894931070258e-14	-9.62759339974614e-15	-4.968563515082256	19.24501280684579	3.875688232249436	0.7885231334249778	-0.005999999999991604	0.2249070177738831	0.303693544767863	-0.5535368996299704	-0.2554574837017416
0.5516666666666667	58.73884716795409	839.0932081500883	54.49983080085129	0.462653127538884	-0.005999999999991602	0.08579217215148346	-0.03385201897291684	-0.4715922713387236	-0.03084769154295242	5.494607958729313e-13	1.584354552376945e-12	4.550637427650198e-13	-0.2999999998677017	-0.005999999999991595	0.2000000001973087	-4.072732130796503e-14	-7.078940288589919e-14	4.018952693631089e-16	-4.045375708853928	22.10062801477117	4.799003006499359	0.7838683751293843	-0.005999999999991594	0.2256089471038805	0.2915047811165877	-0.5696579193651881	-0.2588679551859158
0.5525	59.27560509024151	838.8760891839833	54.48940739859306	0.4629616576045377	-0.005999999999991577	0.08578015059813743	-0.0335341221172305	-0.4634890015937505	-0.03029051494769697	3.695058660781795e-13	2.086526034338582e-12	3.107147884948824e-13	-0.2999999998677017	-0.00599999999999157	0.2000000001973049	-3.772564890776933e-14	-8.781723452580753e-14	9.289045653616368e-15	-2.95133980804656	25.15267513547023	5.79442297117927	0.7797768483907134	-0.005999999999991569	0.2261846357954839	0.2756334473010295	-0.5831669790612037	-0.2607054483593877
0.5533333333333333	59.82542622174366	838.6408054629192	54.47434557452438	0.4632626334780988	-0.005999999999991536	0.0857705955242931	-0.03321625456391395	-0.4556957417065018	-0.02974804556590039	2.012953570664528e-13	2.483493478419754e-12	1.754538189137682e-13	-0.2999999998677053	-0.005999999999991529	0.2000000001972998	-3.418660501053476e-14	-1.008812685363862e-13	1.69564334937915e-14	-1.690880917648276	28.39573579821732	6.856678834476003	0.7762745135226293	-0.005999999999991528	0.2266373218320059	0.2562743528773435	-0.594208365321452	-0.2610542047383496
